<svg width="64" height="64" viewBox="0 0 64 64" fill="none" xmlns="http://www.w3.org/2000/svg">
  <path d="M32 16C32 20.4183 28.4183 24 24 24C19.5817 24 16 20.4183 16 16C16 11.5817 19.5817 8 24 8C28.4183 8 32 11.5817 32 16Z" stroke="#333333" stroke-width="1.5"/>
  <path d="M48 16C48 20.4183 44.4183 24 40 24C35.5817 24 32 20.4183 32 16C32 11.5817 35.5817 8 40 8C44.4183 8 48 11.5817 48 16Z" stroke="#333333" stroke-width="1.5"/>
  <path d="M16 40C16 35.5817 19.5817 32 24 32C28.4183 32 32 35.5817 32 40" stroke="#333333" stroke-width="1.5"/>
  <path d="M32 40C32 35.5817 35.5817 32 40 32C44.4183 32 48 35.5817 48 40" stroke="#333333" stroke-width="1.5"/>
  <path d="M32 16V56" stroke="#333333" stroke-width="1.5"/>
  <path d="M24 48L32 56L40 48" stroke="#333333" stroke-width="1.5"/>
</svg>