<svg width="100" height="100" viewBox="0 0 100 100" fill="none" xmlns="http://www.w3.org/2000/svg">
  <path d="M50 10C38.9543 10 30 18.9543 30 30C30 41.0457 38.9543 50 50 50C61.0457 50 70 41.0457 70 30C70 18.9543 61.0457 10 50 10Z" stroke="#333333" stroke-width="2"/>
  <path d="M50 50V90" stroke="#333333" stroke-width="2"/>
  <path d="M40 20C40 20 45 30 50 30C55 30 60 20 60 20" stroke="#333333" stroke-width="2"/>
  <path d="M35 25C35 25 45 40 50 40C55 40 65 25 65 25" stroke="#333333" stroke-width="2"/>
  <path d="M30 30C30 30 45 50 50 50C55 50 70 30 70 30" stroke="#333333" stroke-width="2"/>
</svg>